PathFileType	4	(X/Y/Z)	D:\TRACE\spotREDO_2-26-24\spot_Both_Motion_1_9-v60.trc
DataRate	CameraRate	NumFrames	NumMarkers	Units	OrigDataRate	OrigDataStartFrame	OrigNumFrames
100.00	100.00	      17	9	mm	100.00	2626	      7000
Frame#	Time	front left toe			Front right toe			aft left toe			aft right toe			Arm			FL body			FR body			AL Body			AR Body			
		X1	Y1	Z1	X2	Y2	Z2	X3	Y3	Z3	X4	Y4	Z4	X5	Y5	Z5	X6	Y6	Z6	X7	Y7	Z7	X8	Y8	Z8	X9	Y9	Z9	

2626	26.250	-254.64868	11.63020	-483.23877	194.66772	19.76735	-411.08026	-263.87573	16.45985	152.04726	156.81261	29.22336	178.72786	-101.34756	648.70331	-813.30682	-146.35907	540.36560	-501.54990	8.48396	544.93250	-495.01563	-191.22458	571.47308	380.90652	-50.31693	576.47418	388.92273	
2627	26.260	-253.38809	11.99643	-483.14093	196.33028	20.57986	-410.25769	-262.66357	16.05188	152.34074	158.29085	29.38889	179.11574	-100.39114	648.75085	-813.02521	-145.22098	540.46307	-501.95947	9.52217	545.09387	-495.64255	-189.95380	571.26843	380.39670	-49.50434	576.34442	388.33179	
2628	26.270	-252.54713	12.10619	-482.93805	196.42220	19.91221	-410.87482	-261.64111	15.98242	152.30367	158.64517	29.08337	179.06540	-99.59824	649.26294	-813.30981	-143.96843	540.73944	-502.77084	10.71676	545.40948	-496.05246	-188.99213	571.21283	380.01263	-48.21658	576.31641	387.87201	
2629	26.280	-251.43761	12.58582	-483.02921	197.49924	20.30301	-410.79742	-260.98911	16.15857	152.21750	159.46304	28.87962	178.91862	-98.22971	649.89929	-813.36694	-143.08649	541.00043	-503.23355	11.90345	545.49518	-496.71802	-187.69055	571.39056	379.16769	-47.29214	576.66083	387.33710	
2630	26.290	-250.60294	12.97832	-483.01419	200.63873	21.71314	-409.88409	-259.65210	16.04395	152.43736	160.86353	29.10224	178.87029	-96.83801	651.16388	-813.59399	-141.65291	540.67975	-503.91840	13.11098	545.21631	-497.34290	-187.09541	571.93158	378.57281	-45.95261	577.00500	386.61600	
2631	26.300	-249.93701	13.21975	-483.03662	199.88766	20.89389	-410.68759	-259.02911	16.11047	152.27954	161.41278	29.12359	178.90608	-94.75293	653.04712	-814.07971	-140.86989	540.30963	-504.27325	14.05882	544.92627	-498.02667	-185.49689	572.48730	378.02951	-44.90158	577.69080	386.24493	
2632	26.310	-249.02921	13.38436	-483.01819	200.47736	20.55410	-411.01364	-258.37991	16.25747	152.48531	162.33090	29.17516	179.03206	-92.45346	656.22400	-814.10895	-139.84500	540.12439	-504.93875	15.08986	544.65924	-498.39612	-184.46516	572.92908	377.52795	-43.38343	578.10425	385.51273	
2633	26.320	-247.94279	13.82185	-482.66412	201.57266	21.09808	-410.75299	-256.75128	16.14830	152.64134	163.89087	29.25893	178.97086	-89.81091	660.36560	-814.18811	-139.12395	540.20972	-505.46704	15.95115	544.66461	-499.03574	-182.57007	573.35638	377.10327	-41.90075	578.46289	385.06906	
2634	26.330	-246.86562	13.90217	-482.40915	202.42525	21.66348	-410.72888	-256.09750	16.29908	152.73907	164.44827	28.97639	178.67737	-86.44843	665.73053	-813.92401	-138.28780	540.29071	-505.72339	16.77067	544.85352	-499.40979	-180.83067	573.44012	376.85052	-40.26488	578.61060	384.62738	
2635	26.340	-246.55951	14.42031	-482.12247	203.23906	22.53076	-410.40118	-255.12123	16.03893	152.86624	165.80775	28.44155	178.78772	-83.07600	671.64716	-813.22784	-137.19662	541.22522	-506.16254	17.55791	545.28528	-500.00369	-179.23897	573.44659	376.60684	-38.39115	578.17633	384.23846	
2636	26.350	-245.44739	14.96873	-482.30670	203.58032	22.06505	-411.26285	-254.24858	15.83461	152.76955	166.79892	28.24435	178.83713	-80.11706	677.68665	-812.77625	-137.16316	542.36621	-506.01917	18.91901	546.11676	-500.19943	-177.62985	572.76593	376.48532	-37.05239	577.36823	383.88159	
2637	26.360	-244.42987	15.37323	-482.41702	204.80939	22.51934	-410.98392	-253.39226	15.72930	152.65976	167.91273	28.10216	179.07722	-76.86938	683.00714	-811.81927	-135.18715	543.76941	-506.41278	20.37976	547.42010	-500.22592	-176.39964	571.76239	376.30469	-35.77685	576.30780	383.77634	
2638	26.370	-242.98090	16.00685	-482.37360	205.68642	22.80391	-410.62430	-252.31439	15.44102	152.96803	168.52150	27.76207	179.35657	-74.39597	687.53888	-811.09839	-133.16568	545.63269	-506.27051	22.32307	548.97137	-500.15359	-175.46259	571.24640	376.26642	-34.61946	575.57648	383.92081	
2639	26.380	-242.00488	16.80434	-482.32968	206.62817	23.31306	-410.12744	-251.82913	15.40867	153.06883	169.41322	27.73883	179.65520	-72.27820	691.48944	-810.32928	-130.92686	547.61145	-506.40915	24.70745	550.65009	-499.93924	-174.33937	570.57562	376.21967	-33.54187	574.60449	384.42868	
2640	26.390	-240.70494	17.56318	-482.55457	208.47760	23.18470	-409.87640	-250.81837	15.12386	153.07715	169.97302	27.50354	179.76967	-71.30110	694.08612	-809.66284	-128.21236	549.67084	-506.12433	27.44939	552.42792	-499.52744	-173.48941	569.68732	376.32727	-32.86996	573.42749	384.59924	
2641	26.400	-239.41173	18.12882	-482.68356	209.29730	23.53489	-409.41397	-249.97192	15.02897	153.17755	170.86029	27.56175	180.09193	-71.15095	695.74854	-809.20428	-125.44905	552.09918	-506.12131	30.30583	554.48334	-498.92667	-172.80640	568.96246	376.36246	-32.15839	572.42450	384.94257	
2642	26.410	-238.43195	18.87204	-482.85721	210.34505	23.08021	-409.29514	-249.58430	15.11415	152.96190	171.68364	27.54416	180.41438	-71.13720	696.07617	-808.67725	-121.43338	553.94220	-506.07431	33.18343	556.29816	-498.48029	-171.85364	568.32306	376.50507	-30.90454	571.51349	385.70853	
